<?xml version="1.0" standalone="no"?>
<!DOCTYPE svg PUBLIC "-//W3C//DTD SVG 20010904//EN"
 "http://www.w3.org/TR/2001/REC-SVG-20010904/DTD/svg10.dtd">
<svg version="1.0" xmlns="http://www.w3.org/2000/svg"
 width="256.000000pt" height="256.000000pt" viewBox="0 0 256.000000 256.000000"
 preserveAspectRatio="xMidYMid meet">

<g transform="translate(0.000000,256.000000) scale(0.100000,-0.100000)"
fill="#000000" stroke="none">
<path d="M58 2544 c-42 -22 -58 -63 -58 -144 l0 -71 38 3 37 3 5 70 5 70 575
0 575 0 0 -575 0 -575 -575 0 -575 0 -3 468 -2 467 -40 0 -40 0 0 -468 c0
-386 2 -472 14 -487 12 -17 12 -23 0 -47 -22 -42 -21 -1156 1 -1198 32 -61 18
-60 647 -60 503 0 576 2 596 16 20 14 24 14 44 0 20 -14 83 -16 490 -16 l468
0 0 35 0 35 -444 0 c-266 0 -455 4 -470 10 l-26 10 2 572 3 573 575 0 575 0 3
-570 c3 -650 11 -595 -90 -595 l-58 0 0 -35 0 -35 70 0 c44 0 82 6 100 15 61
32 60 19 60 645 0 521 -2 574 -17 601 -36 61 -25 60 -655 57 l-573 -3 3 573
c3 632 3 625 -59 657 -42 22 -1161 21 -1201 -1z m1180 -1882 l2 -572 -26 -10
c-36 -14 -1089 -13 -1115 0 -18 10 -19 27 -19 579 0 312 3 571 7 574 3 4 263
6 577 5 l571 -3 3 -573z"/>
<path d="M150 660 l0 -510 510 0 510 0 0 510 0 510 -510 0 -510 0 0 -510z
m940 0 l0 -430 -430 0 -430 0 0 430 0 430 430 0 430 0 0 -430z"/>
<path d="M624 868 c-42 -11 -82 -53 -90 -95 -7 -40 -8 -38 32 -46 29 -5 32 -3
40 25 11 39 33 53 67 44 31 -7 45 -46 30 -79 -6 -12 -42 -57 -82 -99 -69 -74
-71 -77 -71 -127 l0 -51 115 0 115 0 0 40 0 39 -71 3 -71 3 65 72 c71 80 92
130 76 187 -18 64 -88 102 -155 84z"/>
<path d="M150 1900 l0 -510 510 0 510 0 0 510 0 510 -510 0 -510 0 0 -510z
m940 0 l0 -430 -430 0 -430 0 0 430 0 430 430 0 430 0 0 -430z"/>
<path d="M942 2223 c3 -36 5 -38 38 -38 33 0 35 2 38 38 l3 37 -41 0 -41 0 3
-37z"/>
<path d="M560 2075 c0 -34 1 -35 40 -35 l40 0 0 -175 0 -175 40 0 40 0 0 210
0 210 -80 0 -80 0 0 -35z"/>
<path d="M942 2073 c3 -36 5 -38 38 -38 33 0 35 2 38 38 l3 37 -41 0 -41 0 3
-37z"/>
<path d="M1390 660 l0 -510 510 0 510 0 0 510 0 510 -510 0 -510 0 0 -510z
m940 0 l0 -430 -430 0 -430 0 0 430 0 430 430 0 430 0 0 -430z"/>
<path d="M1814 836 c-43 -43 -43 -62 -2 -70 24 -5 37 -1 55 16 19 18 28 20 51
12 22 -8 27 -15 27 -44 0 -27 -5 -37 -22 -45 -18 -7 -23 -18 -23 -45 0 -27 5
-38 23 -45 25 -11 35 -58 16 -81 -20 -24 -68 -18 -81 11 -9 19 -19 25 -45 25
-29 0 -33 -3 -33 -26 0 -36 57 -91 103 -99 48 -9 104 19 129 65 23 44 23 77
-1 115 -18 30 -18 32 0 65 23 42 24 72 4 110 -25 48 -62 70 -117 70 -43 0 -54
-4 -84 -34z"/>
</g>
</svg>
