<?xml version="1.0" standalone="no"?>
<!DOCTYPE svg PUBLIC "-//W3C//DTD SVG 20010904//EN"
 "http://www.w3.org/TR/2001/REC-SVG-20010904/DTD/svg10.dtd">
<svg version="1.0" xmlns="http://www.w3.org/2000/svg"
 width="128.000000pt" height="128.000000pt" viewBox="0 0 128.000000 128.000000"
 preserveAspectRatio="xMidYMid meet">

<g transform="translate(0.000000,128.000000) scale(0.100000,-0.100000)"
fill="#000000" stroke="none">
<path d="M501 1265 c-178 -39 -348 -172 -429 -336 -127 -256 -81 -540 118
-739 252 -252 648 -252 900 0 88 87 151 201 175 316 96 453 -311 857 -764 759z
m99 -125 l0 -60 40 0 40 0 0 60 c0 33 1 60 3 60 32 0 137 -29 186 -51 69 -31
171 -104 171 -122 0 -6 -14 -26 -32 -44 l-32 -33 27 -27 27 -27 34 33 34 33
16 -23 c37 -58 86 -202 86 -256 0 -2 -27 -3 -60 -3 l-60 0 0 -40 0 -40 60 0
c33 0 60 -1 60 -3 0 -54 -49 -198 -86 -256 l-16 -23 -34 33 c-27 27 -38 31
-51 23 -38 -24 -39 -42 -5 -77 17 -18 32 -38 32 -44 0 -18 -102 -91 -171 -122
-49 -22 -154 -51 -186 -51 -2 0 -3 27 -3 60 l0 60 -40 0 -40 0 0 -60 0 -60
-42 6 c-63 10 -126 32 -188 66 -62 35 -130 88 -130 103 0 5 15 24 32 42 34 35
33 53 -5 77 -13 8 -24 4 -51 -23 l-34 -33 -16 23 c-37 58 -86 202 -86 256 0 2
27 3 60 3 l60 0 0 40 0 40 -60 0 c-33 0 -60 1 -60 3 0 54 49 198 86 256 l16
23 34 -33 34 -33 27 27 27 27 -33 34 c-18 19 -32 39 -30 44 8 22 96 84 163
117 60 29 129 49 184 54 8 1 12 -17 12 -59z"/>
<path d="M600 772 l0 -147 105 -105 105 -105 27 28 28 27 -93 93 -92 92 0 133
0 132 -40 0 -40 0 0 -148z"/>
</g>
</svg>
