<?xml version="1.0" standalone="no"?>
<!DOCTYPE svg PUBLIC "-//W3C//DTD SVG 20010904//EN"
 "http://www.w3.org/TR/2001/REC-SVG-20010904/DTD/svg10.dtd">
<svg version="1.0" xmlns="http://www.w3.org/2000/svg"
 width="256.000000pt" height="256.000000pt" viewBox="0 0 256.000000 256.000000"
 preserveAspectRatio="xMidYMid meet">

<g transform="translate(0.000000,256.000000) scale(0.100000,-0.100000)"
fill="#000000" stroke="none">
<path d="M1116 2549 c-484 -67 -895 -403 -1046 -857 -50 -152 -64 -242 -64
-412 0 -170 14 -260 64 -412 122 -366 432 -676 798 -798 152 -50 242 -64 412
-64 170 0 260 14 412 64 366 122 676 432 798 798 50 152 64 242 64 412 0 170
-14 260 -64 412 -103 307 -345 584 -641 734 -85 42 -217 87 -324 109 -96 20
-314 28 -409 14z m64 -1270 l0 -1072 -59 7 c-136 15 -320 88 -452 177 -81 54
-223 195 -276 274 -190 281 -241 620 -142 941 26 83 86 206 142 289 52 77 195
220 272 272 147 99 359 179 483 182 l32 1 0 -1071z m359 1049 c28 -6 51 -14
51 -17 0 -4 -47 -53 -105 -111 l-105 -105 0 129 0 129 54 -7 c30 -3 77 -11
105 -18z m345 -156 c38 -26 71 -52 73 -57 2 -6 -127 -141 -287 -300 l-290
-290 0 145 0 145 202 202 c112 112 210 203 218 203 8 0 46 -22 84 -48z m291
-292 c25 -37 45 -72 45 -76 0 -5 -189 -198 -420 -429 l-420 -420 0 145 0 145
362 362 c281 281 365 360 375 351 7 -6 33 -41 58 -78z m149 -322 c4 -18 14
-69 21 -113 l14 -80 -490 -490 -489 -490 0 140 0 140 462 462 c255 255 466
463 469 463 4 0 10 -15 13 -32z m-18 -612 c-92 -272 -277 -491 -526 -620 -86
-45 -223 -96 -257 -96 -11 0 139 157 392 410 235 235 411 404 413 396 2 -8 -8
-48 -22 -90z"/>
</g>
</svg>
