<?xml version="1.0" standalone="no"?>
<!DOCTYPE svg PUBLIC "-//W3C//DTD SVG 20010904//EN"
 "http://www.w3.org/TR/2001/REC-SVG-20010904/DTD/svg10.dtd">
<svg version="1.0" xmlns="http://www.w3.org/2000/svg"
 width="256.000000pt" height="256.000000pt" viewBox="0 0 256.000000 256.000000"
 preserveAspectRatio="xMidYMid meet">

<g transform="translate(0.000000,256.000000) scale(0.100000,-0.100000)"
fill="#000000" stroke="none">
<path d="M1115 2469 c-403 -60 -746 -315 -920 -681 -57 -122 -74 -181 -55
-203 28 -34 52 -14 85 70 171 438 527 705 994 743 91 8 117 24 95 60 -13 20
-103 25 -199 11z"/>
<path d="M1099 2265 c-629 -119 -986 -785 -739 -1378 92 -222 305 -435 527
-527 144 -60 221 -74 398 -74 176 1 243 14 388 74 221 92 426 295 523 520 64
148 77 215 77 400 0 137 -3 178 -21 242 -51 186 -135 332 -267 463 -132 133
-281 218 -463 266 -102 27 -317 34 -423 14z m416 -94 c311 -82 572 -345 657
-661 32 -122 32 -338 0 -460 -85 -319 -343 -577 -662 -662 -122 -32 -338 -32
-460 0 -319 85 -577 343 -662 662 -32 122 -32 338 0 460 92 345 375 608 727
676 99 19 297 11 400 -15z"/>
<path d="M940 1701 c-60 -32 -93 -83 -98 -150 -5 -74 10 -104 101 -199 l71
-73 -71 -72 c-84 -85 -103 -119 -103 -184 0 -93 69 -172 158 -181 76 -7 116
12 204 96 l78 75 74 -72 c41 -39 90 -78 110 -86 121 -51 256 37 256 165 0 62
-23 105 -101 186 l-72 74 75 78 c84 88 103 128 96 204 -9 89 -88 158 -181 158
-65 0 -99 -19 -184 -103 l-72 -71 -73 71 c-40 38 -87 77 -105 87 -43 22 -120
21 -163 -3z m220 -156 c63 -61 106 -95 120 -95 14 0 57 34 120 95 91 88 101
95 138 95 57 0 102 -45 102 -102 0 -37 -7 -47 -95 -138 -61 -63 -95 -106 -95
-120 0 -14 34 -57 95 -120 88 -91 95 -101 95 -138 0 -57 -45 -102 -102 -102
-37 0 -47 7 -138 95 -63 61 -106 95 -120 95 -14 0 -57 -34 -120 -95 -91 -88
-101 -95 -138 -95 -57 0 -102 45 -102 102 0 37 7 47 95 138 61 63 95 106 95
120 0 14 -34 57 -95 120 -88 91 -95 101 -95 138 0 32 7 47 31 71 24 24 39 31
71 31 37 0 47 -7 138 -95z"/>
<path d="M90 1404 c-17 -43 -9 -145 13 -158 12 -8 22 -8 35 0 14 9 17 26 17
95 l0 84 -27 3 c-23 3 -30 -2 -38 -24z"/>
<path d="M2411 1306 c-8 -9 -11 -43 -9 -93 3 -69 5 -78 23 -81 38 -4 49 13 53
88 4 74 -5 100 -38 100 -10 0 -23 -6 -29 -14z"/>
<path d="M2360 968 c-5 -13 -23 -57 -40 -98 -167 -411 -526 -671 -979 -708
-64 -5 -87 -11 -95 -25 -8 -12 -8 -22 0 -35 18 -26 172 -21 305 12 365 88 656
324 815 660 56 119 72 179 55 200 -19 23 -50 20 -61 -6z"/>
</g>
</svg>
