<?xml version="1.0" standalone="no"?>
<!DOCTYPE svg PUBLIC "-//W3C//DTD SVG 20010904//EN"
 "http://www.w3.org/TR/2001/REC-SVG-20010904/DTD/svg10.dtd">
<svg version="1.0" xmlns="http://www.w3.org/2000/svg"
 width="256.000000pt" height="256.000000pt" viewBox="0 0 256.000000 256.000000"
 preserveAspectRatio="xMidYMid meet">

<g transform="translate(0.000000,256.000000) scale(0.100000,-0.100000)"
fill="#000000" stroke="none">
<path d="M368 2303 c-80 -98 -150 -188 -156 -199 -20 -38 3 -53 88 -56 l75 -3
5 -235 5 -235 140 -3 c123 -2 141 0 152 15 10 12 13 76 13 240 l0 223 73 0
c71 0 97 10 97 36 0 22 -305 389 -327 392 -16 2 -53 -37 -165 -175z m266 -53
l97 -120 -41 0 c-83 0 -80 9 -80 -250 l0 -230 -75 0 -75 0 0 218 c0 257 -1
262 -80 262 l-50 0 98 120 c53 66 100 120 103 120 3 0 49 -54 103 -120z"/>
<path d="M1113 2297 c-82 -100 -152 -188 -156 -194 -5 -7 -3 -21 3 -32 9 -17
23 -21 88 -23 l77 -3 5 -235 5 -235 145 0 145 0 5 235 5 235 77 3 c65 2 79 6
88 23 6 11 8 25 3 32 -4 6 -74 94 -156 194 -96 119 -155 183 -167 183 -12 0
-71 -64 -167 -183z m270 -47 l97 -120 -49 0 c-80 0 -81 -5 -81 -262 l0 -218
-70 0 -70 0 0 218 c0 257 -1 262 -81 262 l-49 0 97 120 c54 66 100 120 103
120 3 0 49 -54 103 -120z"/>
<path d="M1923 2373 c-48 -60 -118 -145 -155 -191 -37 -46 -68 -89 -68 -96 0
-26 26 -36 97 -36 l73 0 0 -223 c0 -164 3 -228 13 -240 11 -15 29 -17 152 -15
l140 3 5 235 5 235 75 3 c85 3 108 18 88 56 -6 11 -76 101 -156 199 -92 113
-151 177 -162 177 -12 0 -53 -42 -107 -107z m211 -125 l96 -118 -49 0 c-80 0
-81 -5 -81 -262 l0 -218 -75 0 -75 0 0 230 c0 259 3 250 -80 250 l-41 0 97
120 c54 66 101 119 105 118 4 -2 50 -56 103 -120z"/>
<path d="M1128 1450 c-398 -47 -780 -288 -984 -622 l-35 -57 20 -39 c36 -71
138 -197 230 -285 253 -240 571 -367 921 -367 350 0 668 127 921 367 92 88
194 214 230 285 l20 39 -32 52 c-266 433 -786 685 -1291 627z m390 -96 c100
-20 235 -65 314 -105 65 -33 204 -122 248 -159 21 -18 17 -17 -29 6 -341 166
-758 215 -1147 134 -117 -24 -253 -69 -364 -121 -95 -44 -84 -30 45 55 108 72
189 112 309 151 88 29 140 40 281 59 57 8 265 -4 343 -20z m-574 -246 c-72
-76 -96 -113 -123 -195 -39 -115 -25 -257 36 -377 38 -76 129 -160 215 -201
326 -154 688 76 688 437 0 133 -40 227 -142 334 l-59 62 44 -9 c271 -50 510
-164 691 -330 31 -28 56 -58 56 -66 0 -28 -92 -146 -184 -238 -389 -387 -979
-477 -1467 -223 -123 64 -248 158 -334 250 -79 85 -155 189 -155 211 0 41 222
206 373 277 117 55 329 122 411 129 5 1 -18 -27 -50 -61z m424 52 c114 -27
224 -116 278 -225 26 -55 29 -69 29 -165 0 -97 -2 -110 -32 -173 -146 -307
-580 -307 -726 0 -30 63 -32 76 -32 173 0 98 2 109 33 172 81 166 272 259 450
218z"/>
<path d="M1185 1032 c-67 -22 -145 -100 -168 -166 -65 -191 70 -381 269 -378
122 1 233 87 265 205 6 21 23 57 39 79 54 74 52 154 -6 217 -43 49 -107 69
-163 53 -25 -8 -48 -9 -72 -2 -48 14 -106 11 -164 -8z m119 -89 c-17 -55 -10
-118 16 -156 26 -39 90 -77 128 -77 27 0 27 -6 3 -46 -63 -104 -218 -128 -302
-48 -137 129 -56 348 130 353 32 1 33 0 25 -26z m224 -9 c12 -14 22 -38 22
-55 0 -42 -48 -89 -90 -89 -38 0 -90 47 -90 82 2 85 102 125 158 62z"/>
</g>
</svg>
