<?xml version="1.0" standalone="no"?>
<!DOCTYPE svg PUBLIC "-//W3C//DTD SVG 20010904//EN"
 "http://www.w3.org/TR/2001/REC-SVG-20010904/DTD/svg10.dtd">
<svg version="1.0" xmlns="http://www.w3.org/2000/svg"
 width="256.000000pt" height="256.000000pt" viewBox="0 0 256.000000 256.000000"
 preserveAspectRatio="xMidYMid meet">

<g transform="translate(0.000000,256.000000) scale(0.100000,-0.100000)"
fill="#000000" stroke="none">
<path d="M1140 2224 c-234 -50 -436 -254 -485 -489 -95 -454 306 -855 760
-760 287 60 505 329 505 625 0 236 -142 466 -350 569 -139 68 -284 87 -430 55z"/>
<path d="M456 1353 c-159 -204 -178 -491 -49 -713 76 -130 221 -246 363 -291
337 -106 711 97 806 439 9 34 15 64 12 67 -3 3 -25 -2 -49 -11 -223 -80 -494
-45 -696 89 -140 93 -276 267 -318 406 -10 34 -21 61 -25 61 -4 0 -24 -21 -44
-47z"/>
<path d="M2050 1389 c0 -21 -53 -144 -88 -203 -20 -33 -72 -99 -117 -146 l-82
-85 -8 -69 c-20 -190 -99 -360 -230 -491 -31 -31 -54 -59 -51 -62 14 -14 185
-14 256 1 219 46 414 223 481 436 46 147 33 327 -35 465 -52 106 -126 196
-126 154z"/>
</g>
</svg>
