<?xml version="1.0" standalone="no"?>
<!DOCTYPE svg PUBLIC "-//W3C//DTD SVG 20010904//EN"
 "http://www.w3.org/TR/2001/REC-SVG-20010904/DTD/svg10.dtd">
<svg version="1.0" xmlns="http://www.w3.org/2000/svg"
 width="64.000000pt" height="64.000000pt" viewBox="0 0 64.000000 64.000000"
 preserveAspectRatio="xMidYMid meet">

<g transform="translate(0.000000,64.000000) scale(0.100000,-0.100000)"
fill="#000000" stroke="none">
<path d="M65 390 c-10 -15 11 -44 66 -94 112 -101 266 -101 378 0 60 54 78 81
62 97 -7 7 -27 -7 -64 -45 -116 -117 -258 -118 -372 -2 -56 57 -60 60 -70 44z"/>
<path d="M85 230 c-23 -24 -26 -33 -17 -42 10 -10 19 -6 43 19 18 17 28 36 25
42 -11 17 -20 14 -51 -19z"/>
<path d="M504 249 c-3 -6 7 -25 25 -42 24 -25 33 -29 43 -19 9 9 6 18 -17 42
-31 33 -40 36 -51 19z"/>
<path d="M185 179 c-17 -31 -14 -59 4 -59 15 0 43 59 37 76 -9 23 -24 16 -41
-17z"/>
<path d="M414 196 c-6 -17 22 -76 37 -76 18 0 21 28 4 59 -17 33 -32 40 -41
17z"/>
<path d="M304 177 c-10 -27 0 -72 16 -72 11 0 15 11 15 39 0 40 -20 61 -31 33z"/>
</g>
</svg>
