<?xml version="1.0" standalone="no"?>
<!DOCTYPE svg PUBLIC "-//W3C//DTD SVG 20010904//EN"
 "http://www.w3.org/TR/2001/REC-SVG-20010904/DTD/svg10.dtd">
<svg version="1.0" xmlns="http://www.w3.org/2000/svg"
 width="64.000000pt" height="64.000000pt" viewBox="0 0 64.000000 64.000000"
 preserveAspectRatio="xMidYMid meet">

<g transform="translate(0.000000,64.000000) scale(0.100000,-0.100000)"
fill="#000000" stroke="none">
<path d="M232 541 c-62 -21 -123 -76 -153 -138 -39 -80 -23 -203 34 -278 15
-20 16 -20 46 9 36 34 26 63 -10 30 -20 -18 -21 -18 -32 1 -19 32 -35 78 -36
103 -1 17 5 22 24 22 16 0 25 6 25 15 0 9 -10 15 -26 15 -24 0 -25 3 -19 28 3
15 18 47 32 70 l25 44 23 -22 c27 -26 46 -9 21 19 -9 10 -16 20 -16 23 0 11
90 48 115 48 21 0 25 -5 25 -30 0 -16 5 -30 10 -30 6 0 10 14 10 30 0 25 4 30
25 30 26 0 115 -39 115 -51 0 -3 -7 -12 -15 -19 -8 -7 -15 -16 -15 -21 0 -14
22 -10 41 7 16 14 19 12 42 -28 14 -24 29 -55 32 -70 7 -26 5 -28 -25 -28 -39
0 -36 -23 3 -28 18 -2 27 -9 27 -21 0 -24 -20 -81 -38 -109 l-15 -23 -22 21
c-25 23 -35 25 -35 7 0 -20 47 -60 63 -54 8 3 27 30 42 60 34 71 37 167 5 232
-30 62 -97 120 -161 139 -67 20 -101 20 -167 -3z"/>
<path d="M370 249 c-68 -7 -89 -13 -103 -30 -23 -28 -22 -35 8 -55 25 -16 29
-15 120 26 52 24 95 49 95 56 0 8 -8 13 -17 13 -10 -1 -56 -6 -103 -10z m30
-24 c0 -2 -18 -14 -40 -25 -39 -20 -80 -27 -80 -12 1 21 20 31 65 35 28 2 51
4 53 5 1 1 2 0 2 -3z"/>
</g>
</svg>
