<?xml version="1.0" standalone="no"?>
<!DOCTYPE svg PUBLIC "-//W3C//DTD SVG 20010904//EN"
 "http://www.w3.org/TR/2001/REC-SVG-20010904/DTD/svg10.dtd">
<svg version="1.0" xmlns="http://www.w3.org/2000/svg"
 width="256.000000pt" height="256.000000pt" viewBox="0 0 256.000000 256.000000"
 preserveAspectRatio="xMidYMid meet">

<g transform="translate(0.000000,256.000000) scale(0.100000,-0.100000)"
fill="#000000" stroke="none">
<path d="M357 2432 c-20 -22 -22 -63 -5 -80 16 -16 819 -17 849 -2 27 15 25
64 -3 84 -19 14 -77 16 -424 16 -376 0 -402 -1 -417 -18z"/>
<path d="M1472 2434 l-22 -15 0 -1139 0 -1139 22 -15 c30 -21 44 -20 68 4 20
20 20 33 20 1150 0 1117 0 1130 -20 1150 -24 24 -38 25 -68 4z"/>
<path d="M15 1980 c-23 -26 -13 -68 21 -80 15 -6 249 -10 582 -10 488 0 560 2
580 16 24 17 30 62 10 82 -9 9 -155 12 -593 12 -565 0 -582 -1 -600 -20z"/>
<path d="M2076 1648 c-51 -46 -296 -350 -296 -368 0 -23 294 -377 320 -385 45
-14 87 46 59 83 -8 9 -56 67 -106 128 -51 61 -93 114 -93 118 0 3 128 6 284 6
245 0 287 2 300 16 9 8 16 24 16 34 0 10 -7 26 -16 34 -13 14 -55 16 -300 16
-156 0 -284 3 -284 6 0 3 47 63 105 132 58 69 105 134 105 144 0 22 -34 58
-54 58 -8 0 -26 -10 -40 -22z"/>
<path d="M362 1544 c-24 -17 -30 -62 -10 -82 16 -16 819 -17 849 -2 27 15 25
64 -3 84 -19 14 -76 16 -418 16 -342 0 -399 -2 -418 -16z"/>
<path d="M17 1092 c-22 -25 -21 -48 3 -72 20 -20 33 -20 588 -20 497 0 570 2
590 16 28 20 30 69 3 84 -13 6 -217 10 -594 10 -543 0 -575 -1 -590 -18z"/>
<path d="M362 654 c-24 -17 -30 -62 -10 -82 17 -17 839 -17 856 0 20 20 14 65
-10 82 -19 14 -76 16 -418 16 -342 0 -399 -2 -418 -16z"/>
<path d="M17 202 c-22 -25 -21 -48 3 -72 20 -20 33 -20 588 -20 497 0 570 2
590 16 28 20 30 69 3 84 -13 6 -217 10 -594 10 -543 0 -575 -1 -590 -18z"/>
</g>
</svg>
