<?xml version="1.0" standalone="no"?>
<!DOCTYPE svg PUBLIC "-//W3C//DTD SVG 20010904//EN"
 "http://www.w3.org/TR/2001/REC-SVG-20010904/DTD/svg10.dtd">
<svg version="1.0" xmlns="http://www.w3.org/2000/svg"
 width="128.000000pt" height="128.000000pt" viewBox="0 0 128.000000 128.000000"
 preserveAspectRatio="xMidYMid meet">

<g transform="translate(0.000000,128.000000) scale(0.100000,-0.100000)"
fill="#000000" stroke="none">
<path d="M565 1271 c-78 -21 -177 -100 -207 -166 l-11 -25 -174 0 -173 0 0
-465 0 -465 200 0 200 0 0 -35 c0 -33 -2 -35 -35 -35 -34 0 -35 -1 -35 -40 l0
-40 310 0 310 0 0 40 c0 39 -1 40 -35 40 -33 0 -35 2 -35 35 l0 35 200 0 200
0 0 465 0 465 -173 0 -174 0 -11 25 c-20 43 -94 116 -145 142 -53 26 -158 39
-212 24z m186 -99 c140 -72 166 -238 63 -400 -44 -68 -149 -172 -174 -172 -24
0 -129 103 -173 170 -46 70 -73 168 -63 232 17 111 120 198 236 198 44 0 71
-7 111 -28z m-423 -227 c6 -133 113 -301 264 -412 l48 -35 48 35 c151 111 258
279 264 412 l2 55 123 0 123 0 0 -285 0 -285 -560 0 -560 0 0 285 0 285 123 0
123 0 2 -55z m872 -655 l0 -60 -560 0 -560 0 0 60 0 60 560 0 560 0 0 -60z
m-400 -175 l0 -35 -160 0 -160 0 0 35 0 35 160 0 160 0 0 -35z"/>
<path d="M580 1119 c-85 -34 -128 -147 -86 -227 79 -153 308 -99 308 73 0 115
-117 196 -222 154z m118 -89 c48 -45 35 -121 -25 -146 -28 -12 -38 -12 -66 0
-88 36 -62 166 33 166 23 0 44 -8 58 -20z"/>
</g>
</svg>
