<?xml version="1.0" standalone="no"?>
<!DOCTYPE svg PUBLIC "-//W3C//DTD SVG 20010904//EN"
 "http://www.w3.org/TR/2001/REC-SVG-20010904/DTD/svg10.dtd">
<svg version="1.0" xmlns="http://www.w3.org/2000/svg"
 width="256.000000pt" height="256.000000pt" viewBox="0 0 256.000000 256.000000"
 preserveAspectRatio="xMidYMid meet">

<g transform="translate(0.000000,256.000000) scale(0.100000,-0.100000)"
fill="#000000" stroke="none">
<path d="M322 2468 c-17 -17 -17 -2359 0 -2376 17 -17 1899 -17 1916 0 9 9 12
231 12 938 l0 925 -263 263 -262 262 -696 0 c-527 0 -698 -3 -707 -12z m1348
-306 c0 -172 3 -241 12 -250 9 -9 78 -12 250 -12 l238 0 0 -870 0 -870 -890 0
-890 0 0 1120 0 1120 640 0 640 0 0 -238z m265 -2 l180 -180 -183 0 -182 0 0
180 c0 99 1 180 3 180 1 0 83 -81 182 -180z"/>
<path d="M578 2205 c-8 -19 -8 -28 2 -40 11 -13 63 -15 418 -13 373 3 406 4
416 21 8 12 8 22 0 35 -10 16 -43 17 -418 20 l-406 2 -12 -25z"/>
<path d="M586 2044 c-19 -19 -20 -36 -4 -52 17 -17 609 -17 626 0 16 16 15 33
-4 52 -13 14 -55 16 -309 16 -254 0 -296 -2 -309 -16z"/>
<path d="M808 1643 l-87 -87 -45 42 c-25 23 -54 42 -64 42 -21 0 -42 -18 -42
-38 0 -23 121 -142 144 -142 29 0 236 208 236 237 0 20 -17 33 -43 33 -7 0
-51 -39 -99 -87z"/>
<path d="M1102 1688 c-15 -15 -15 -41 0 -56 9 -9 120 -12 440 -12 417 0 428 0
438 20 8 14 8 26 0 40 -10 20 -21 20 -438 20 -320 0 -431 -3 -440 -12z"/>
<path d="M1102 1508 c-17 -17 -15 -55 4 -62 9 -3 146 -6 304 -6 276 0 290 1
300 19 13 25 13 27 -6 45 -13 14 -55 16 -303 16 -210 0 -290 -3 -299 -12z"/>
<path d="M806 1200 l-92 -90 -46 46 c-49 50 -80 54 -94 12 -5 -16 8 -35 62
-89 38 -38 75 -69 83 -69 23 0 231 211 231 235 0 24 -18 45 -38 45 -8 0 -56
-40 -106 -90z"/>
<path d="M1106 1247 c-11 -8 -17 -23 -14 -38 l3 -24 434 -3 c312 -1 438 1 447
9 18 15 18 34 -2 53 -13 14 -67 16 -433 16 -327 0 -421 -3 -435 -13z"/>
<path d="M1097 1063 c-14 -13 -6 -53 12 -63 12 -6 124 -10 295 -10 264 0 277
1 296 20 16 16 18 25 10 40 -10 19 -22 20 -309 20 -164 0 -301 -3 -304 -7z"/>
<path d="M808 753 l-88 -88 -44 44 c-46 46 -79 52 -100 19 -9 -15 0 -29 59
-88 38 -38 76 -70 85 -70 8 0 64 49 124 109 86 86 107 113 104 132 -2 17 -10
25 -28 27 -20 2 -43 -15 -112 -85z"/>
<path d="M1097 803 c-14 -13 -6 -53 12 -63 13 -6 168 -10 435 -10 364 0 417 2
430 16 9 8 16 21 16 28 0 35 -18 36 -455 36 -238 0 -435 -3 -438 -7z"/>
<path d="M1102 618 c-15 -15 -15 -41 0 -56 9 -9 89 -12 299 -12 248 0 290 2
303 16 19 18 19 20 6 45 -10 18 -24 19 -303 19 -215 0 -296 -3 -305 -12z"/>
</g>
</svg>
