<?xml version="1.0" standalone="no"?>
<!DOCTYPE svg PUBLIC "-//W3C//DTD SVG 20010904//EN"
 "http://www.w3.org/TR/2001/REC-SVG-20010904/DTD/svg10.dtd">
<svg version="1.0" xmlns="http://www.w3.org/2000/svg"
 width="128.000000pt" height="140.000000pt" viewBox="0 0 128.000000 140.000000"
 preserveAspectRatio="xMidYMid meet">

<g transform="translate(0.000000,140.000000) scale(0.100000,-0.100000)"
fill="#000000" stroke="none">
<path d="M591 1388 c-13 -7 -34 -26 -45 -41 -20 -27 -21 -42 -24 -312 -3 -317
0 -338 60 -375 43 -26 77 -25 119 3 54 36 58 62 58 360 1 283 -3 311 -47 350
-26 24 -90 32 -121 15z"/>
<path d="M244 1136 c-47 -21 -131 -123 -175 -211 -172 -347 -8 -752 361 -891
68 -25 88 -28 205 -28 102 -1 142 3 185 18 176 60 315 176 389 327 55 111 75
207 67 324 -9 155 -62 283 -162 394 -70 76 -113 93 -171 65 -46 -23 -78 -79
-68 -123 3 -16 29 -56 57 -88 91 -104 130 -227 109 -345 -58 -329 -453 -457
-687 -224 -158 159 -161 393 -6 569 59 68 69 100 48 150 -25 61 -94 89 -152
63z"/>
</g>
</svg>
