<?xml version="1.0" standalone="no"?>
<!DOCTYPE svg PUBLIC "-//W3C//DTD SVG 20010904//EN"
 "http://www.w3.org/TR/2001/REC-SVG-20010904/DTD/svg10.dtd">
<svg version="1.0" xmlns="http://www.w3.org/2000/svg"
 width="256.000000pt" height="256.000000pt" viewBox="0 0 256.000000 256.000000"
 preserveAspectRatio="xMidYMid meet">

<g transform="translate(0.000000,256.000000) scale(0.100000,-0.100000)"
fill="#000000" stroke="none">
<path d="M1213 2424 c-121 -139 -253 -379 -311 -564 -29 -90 -53 -203 -67
-315 l-7 -50 -140 -105 c-77 -58 -144 -115 -149 -128 -5 -13 -9 -133 -9 -267
0 -221 2 -245 18 -266 26 -31 43 -22 102 61 l52 70 113 0 114 0 25 -55 25 -55
80 0 81 0 0 -45 c0 -43 -1 -44 -42 -57 -29 -8 -60 -30 -95 -65 -31 -32 -61
-53 -74 -53 -75 0 -164 -63 -190 -133 -10 -30 -19 -37 -55 -46 -86 -22 -144
-100 -144 -194 0 -29 5 -58 12 -65 9 -9 185 -12 729 -12 628 0 718 2 729 15
20 24 7 136 -20 180 -31 51 -91 92 -156 106 -37 8 -55 18 -60 31 -9 29 -53 77
-87 94 -16 9 -55 17 -84 19 -49 2 -56 5 -73 32 -20 33 -79 83 -98 83 -8 0 -12
20 -12 55 l0 55 81 0 80 0 25 55 25 55 114 0 113 0 52 -70 c59 -83 76 -92 102
-61 16 21 18 45 18 275 0 200 -3 256 -14 271 -8 11 -75 65 -149 120 l-135 100
-7 50 c-26 202 -71 356 -155 530 -91 187 -247 405 -290 405 -10 0 -40 -25 -67
-56z m110 -96 c94 -116 199 -312 252 -472 58 -175 70 -250 70 -451 0 -203 -12
-276 -73 -460 l-37 -110 -255 0 -255 0 -33 95 c-62 176 -76 264 -76 470 -1
142 3 205 17 270 40 186 122 385 224 545 53 82 111 155 123 155 5 0 24 -19 43
-42z m-482 -1098 c6 -52 22 -138 35 -190 13 -52 24 -96 24 -97 0 -2 -52 -3
-115 -3 -111 0 -117 -1 -139 -25 -13 -14 -26 -25 -30 -25 -4 0 -5 78 -4 172
l3 173 105 78 105 78 2 -33 c2 -18 8 -76 14 -128z m1004 82 l100 -78 3 -172
c1 -94 0 -172 -4 -172 -4 0 -17 11 -30 25 -22 24 -28 25 -139 25 -63 0 -115 2
-115 5 0 3 9 37 20 77 24 87 50 255 50 321 0 26 3 47 8 47 4 -1 52 -36 107
-78z m-505 -636 c0 -80 13 -106 51 -106 28 0 78 -52 85 -89 10 -48 27 -57 83
-42 75 19 135 -12 147 -75 8 -44 23 -54 83 -58 62 -5 114 -35 135 -80 34 -72
89 -66 -644 -66 -728 0 -678 -5 -644 61 17 35 67 59 118 59 33 0 35 2 50 53
25 87 75 124 153 112 45 -7 53 -2 82 55 24 46 59 70 112 77 64 8 69 15 69 99
l0 74 60 0 60 0 0 -74z"/>
<path d="M1172 1769 c-83 -41 -132 -124 -132 -224 0 -55 21 -95 64 -121 44
-27 293 -28 346 -1 47 23 70 64 70 122 0 100 -50 184 -133 224 -59 29 -157 29
-215 0z m184 -75 c53 -25 79 -69 79 -133 0 -73 -15 -81 -155 -81 -140 0 -155
8 -155 81 0 64 25 107 77 132 42 21 111 21 154 1z"/>
</g>
</svg>
