<?xml version="1.0" standalone="no"?>
<!DOCTYPE svg PUBLIC "-//W3C//DTD SVG 20010904//EN"
 "http://www.w3.org/TR/2001/REC-SVG-20010904/DTD/svg10.dtd">
<svg version="1.0" xmlns="http://www.w3.org/2000/svg"
 width="256.000000pt" height="256.000000pt" viewBox="0 0 256.000000 256.000000"
 preserveAspectRatio="xMidYMid meet">

<g transform="translate(0.000000,256.000000) scale(0.100000,-0.100000)"
fill="#000000" stroke="none">
<path d="M183 2377 c-187 -186 -201 -207 -167 -241 35 -36 62 -21 191 106
l123 122 0 -1084 0 -1084 -123 122 c-129 127 -156 142 -191 106 -34 -34 -20
-55 167 -241 136 -136 189 -183 207 -183 17 0 70 46 202 177 98 98 181 188
185 201 7 30 -22 62 -56 62 -20 0 -54 -28 -146 -120 -66 -66 -123 -120 -127
-120 -5 0 -8 486 -8 1080 0 594 3 1080 8 1080 4 0 61 -54 127 -120 92 -92 126
-120 146 -120 34 0 63 32 56 62 -4 13 -87 103 -185 201 -132 131 -185 177
-202 177 -18 0 -71 -47 -207 -183z"/>
<path d="M1020 2430 c-24 -24 -25 -38 -4 -68 l15 -22 748 0 c712 0 749 1 764
18 22 25 21 48 -3 72 -20 20 -33 20 -760 20 -727 0 -740 0 -760 -20z"/>
<path d="M1016 1977 c-20 -29 -10 -66 21 -78 14 -5 244 -9 526 -9 439 0 505 2
525 16 24 17 30 62 10 82 -9 9 -143 12 -540 12 l-528 0 -14 -23z"/>
<path d="M1037 1553 c-29 -7 -41 -51 -22 -79 l15 -24 749 0 c712 0 749 1 764
18 22 25 21 48 -3 72 -20 20 -33 20 -752 19 -403 -1 -741 -3 -751 -6z"/>
<path d="M1016 1087 c-20 -29 -10 -66 21 -78 14 -5 244 -9 526 -9 439 0 505 2
525 16 24 17 30 62 10 82 -9 9 -143 12 -540 12 l-528 0 -14 -23z"/>
<path d="M1037 663 c-29 -7 -41 -51 -22 -79 l15 -24 749 0 c730 0 748 0 766
20 23 26 13 68 -21 80 -25 10 -1450 13 -1487 3z"/>
<path d="M1016 198 c-21 -30 -20 -44 4 -68 19 -19 33 -20 533 -20 448 0 515 2
535 16 28 20 30 69 3 84 -13 6 -200 10 -540 10 l-520 0 -15 -22z"/>
</g>
</svg>
