<?xml version="1.0" standalone="no"?>
<!DOCTYPE svg PUBLIC "-//W3C//DTD SVG 20010904//EN"
 "http://www.w3.org/TR/2001/REC-SVG-20010904/DTD/svg10.dtd">
<svg version="1.0" xmlns="http://www.w3.org/2000/svg"
 width="256.000000pt" height="256.000000pt" viewBox="0 0 256.000000 256.000000"
 preserveAspectRatio="xMidYMid meet">

<g transform="translate(0.000000,256.000000) scale(0.100000,-0.100000)"
fill="#000000" stroke="none">
<path d="M1186 2375 c-65 -23 -126 -98 -126 -155 0 -15 -80 -105 -262 -291
l-261 -269 -151 0 c-83 0 -167 -5 -186 -10 -41 -11 -94 -61 -109 -103 -15 -38
-15 -496 0 -534 15 -42 68 -92 109 -103 19 -5 103 -10 186 -10 l151 0 260
-267 c228 -235 261 -273 266 -306 11 -72 81 -139 158 -152 87 -15 194 54 218
140 7 25 11 154 11 352 l0 311 35 22 c107 66 171 237 136 365 -17 65 -72 147
-123 185 l-48 35 0 310 c0 196 -4 325 -11 350 -15 52 -82 119 -134 134 -51 14
-71 13 -119 -4z m132 -91 c53 -35 52 -10 52 -1006 0 -1037 5 -974 -73 -1012
-33 -16 -45 -17 -77 -7 -22 6 -48 23 -59 38 -21 26 -21 33 -21 982 0 868 2
959 16 980 35 49 108 61 162 25z m-258 -1006 l0 -793 -235 235 -235 235 0 325
0 325 232 232 c128 128 234 233 235 233 2 0 3 -357 3 -792z m-552 260 l3 -38
-60 0 c-60 0 -91 -15 -91 -44 0 -24 25 -35 85 -38 l60 -3 3 -47 3 -48 -65 0
c-55 0 -67 -3 -76 -20 -8 -14 -8 -26 0 -40 9 -17 21 -20 76 -20 l65 0 -3 -47
-3 -48 -60 -3 c-60 -3 -85 -14 -85 -38 0 -29 31 -44 91 -44 l60 0 -3 -37 -3
-38 -148 0 -149 0 -24 28 c-24 28 -24 29 -24 265 0 314 -8 302 210 299 l135
-2 3 -37z m990 -100 c37 -56 52 -100 52 -158 0 -26 -5 -62 -12 -81 -14 -41
-65 -119 -78 -119 -6 0 -10 80 -10 200 0 120 4 200 10 200 5 0 22 -19 38 -42z"/>
<path d="M1937 2182 c-75 -76 -137 -145 -137 -152 0 -7 53 -66 117 -132 l117
-118 -117 -118 c-64 -66 -117 -125 -117 -132 0 -7 53 -66 117 -132 l117 -118
-117 -118 c-64 -66 -117 -125 -117 -132 0 -7 53 -66 117 -132 l117 -118 -117
-118 c-64 -66 -117 -125 -117 -132 0 -19 271 -290 290 -290 20 0 40 19 40 39
0 9 -53 69 -117 133 l-118 118 118 118 c64 64 117 124 117 132 0 8 -53 68
-117 132 l-118 118 118 118 c64 64 117 124 117 132 0 8 -53 68 -117 132 l-118
118 118 118 c64 64 117 124 117 132 0 8 -53 68 -117 132 l-118 118 118 118
c64 64 117 124 117 133 0 20 -20 39 -40 39 -9 0 -78 -62 -153 -138z"/>
<path d="M2287 2182 c-75 -75 -137 -144 -137 -152 0 -8 53 -68 117 -132 l118
-118 -118 -118 c-64 -64 -117 -124 -117 -132 0 -8 53 -68 117 -132 l118 -118
-118 -118 c-64 -64 -117 -124 -117 -132 0 -8 53 -68 117 -132 l118 -118 -118
-118 c-64 -64 -117 -124 -117 -132 0 -20 271 -290 291 -290 19 0 39 20 39 39
0 9 -53 69 -117 133 l-118 118 118 118 c64 64 117 124 117 132 0 8 -53 68
-117 132 l-118 118 118 118 c64 64 117 124 117 132 0 8 -53 68 -117 132 l-118
118 118 118 c64 64 117 124 117 132 0 8 -53 68 -117 132 l-118 118 118 118
c64 64 117 124 117 133 0 19 -20 39 -40 39 -8 0 -77 -62 -153 -138z"/>
</g>
</svg>
