<?xml version="1.0" standalone="no"?>
<!DOCTYPE svg PUBLIC "-//W3C//DTD SVG 20010904//EN"
 "http://www.w3.org/TR/2001/REC-SVG-20010904/DTD/svg10.dtd">
<svg version="1.0" xmlns="http://www.w3.org/2000/svg"
 width="256.000000pt" height="256.000000pt" viewBox="0 0 256.000000 256.000000"
 preserveAspectRatio="xMidYMid meet">

<g transform="translate(0.000000,256.000000) scale(0.100000,-0.100000)"
fill="#000000" stroke="none">
<path d="M1445 2461 c-16 -10 -178 -168 -360 -350 l-330 -331 -289 0 -288 0
-39 -39 -39 -39 0 -422 0 -422 39 -39 39 -39 288 0 289 0 320 -321 c176 -177
338 -334 359 -350 64 -47 138 -32 170 35 14 31 16 137 16 1136 0 999 -2 1105
-16 1136 -29 61 -101 81 -159 45z m84 -75 c8 -10 10 -308 9 -1111 -3 -1033 -4
-1098 -20 -1109 -16 -9 -65 36 -358 329 l-340 340 0 445 0 445 337 337 c186
186 343 338 349 338 6 0 17 -6 23 -14z m-789 -1106 l0 -420 -268 0 c-195 0
-271 3 -280 12 -17 17 -17 799 0 816 9 9 85 12 280 12 l268 0 0 -420z"/>
<path d="M380 1580 c-16 -16 -18 -25 -10 -40 10 -18 21 -20 130 -20 l120 0 6
27 c11 42 -15 53 -128 53 -85 0 -101 -3 -118 -20z"/>
<path d="M377 1404 c-12 -12 -8 -51 7 -63 9 -8 51 -11 121 -9 90 3 110 6 119
21 8 12 8 22 0 35 -9 14 -29 17 -126 20 -63 1 -117 -1 -121 -4z"/>
<path d="M381 1216 c-7 -8 -11 -25 -9 -38 3 -23 5 -23 122 -23 102 0 120 2
130 18 8 12 8 22 0 35 -15 24 -224 31 -243 8z"/>
<path d="M370 1020 c-8 -15 -6 -24 10 -40 17 -17 33 -20 118 -20 113 0 139 11
128 53 l-6 27 -120 0 c-109 0 -120 -2 -130 -20z"/>
<path d="M2132 1948 c-21 -21 -14 -35 53 -118 132 -164 195 -341 195 -550 0
-209 -63 -386 -195 -550 -67 -83 -74 -97 -53 -118 22 -22 46 -12 91 38 91 101
161 226 204 367 25 81 27 101 27 263 0 162 -2 182 -27 263 -43 141 -113 266
-204 367 -45 50 -69 60 -91 38z"/>
<path d="M1937 1749 c-27 -16 -20 -47 22 -97 91 -111 133 -227 133 -372 0
-145 -42 -261 -133 -372 -44 -52 -49 -82 -18 -99 19 -10 27 -5 74 44 99 105
157 263 157 427 0 154 -53 308 -143 413 -49 57 -68 69 -92 56z"/>
<path d="M1732 1548 c-18 -18 -15 -31 23 -79 44 -58 65 -117 65 -189 0 -72
-21 -131 -65 -189 -38 -48 -41 -61 -23 -79 25 -25 56 -13 93 38 101 137 101
323 0 460 -37 51 -68 63 -93 38z"/>
</g>
</svg>
