<?xml version="1.0" standalone="no"?>
<!DOCTYPE svg PUBLIC "-//W3C//DTD SVG 20010904//EN"
 "http://www.w3.org/TR/2001/REC-SVG-20010904/DTD/svg10.dtd">
<svg version="1.0" xmlns="http://www.w3.org/2000/svg"
 width="256.000000pt" height="256.000000pt" viewBox="0 0 256.000000 256.000000"
 preserveAspectRatio="xMidYMid meet">

<g transform="translate(0.000000,256.000000) scale(0.100000,-0.100000)"
fill="#000000" stroke="none">
<path d="M1257 2427 c-15 -10 -17 -27 -15 -116 3 -86 6 -106 21 -115 12 -8 22
-8 35 0 14 9 17 29 20 115 2 89 0 106 -15 116 -9 7 -20 13 -23 13 -3 0 -14 -6
-23 -13z"/>
<path d="M613 2163 c-31 -12 -11 -51 62 -123 63 -63 78 -73 93 -64 37 24 27
54 -44 125 -65 65 -81 74 -111 62z"/>
<path d="M1836 2101 c-71 -71 -81 -101 -44 -125 15 -9 30 1 93 64 75 74 86 95
63 118 -23 23 -44 12 -112 -57z"/>
<path d="M1208 1887 c-14 -12 -56 -78 -92 -147 -36 -69 -70 -131 -75 -139 -5
-7 -52 -21 -105 -31 l-96 -17 -67 125 c-74 138 -100 160 -166 148 -44 -8 -53
-19 -122 -146 -31 -58 -62 -111 -69 -118 -7 -7 -72 -24 -146 -37 -146 -27
-175 -42 -186 -101 -9 -51 2 -71 104 -176 l96 -98 -18 -140 c-20 -158 -15
-189 35 -215 46 -25 81 -18 198 40 62 30 121 55 132 55 11 0 63 -22 117 -49
78 -39 99 -55 108 -79 15 -39 58 -67 103 -66 23 1 87 26 174 67 76 37 142 67
147 67 5 0 77 -32 160 -71 146 -69 153 -71 190 -60 39 11 80 51 80 77 0 16
189 114 219 114 11 0 70 -25 132 -55 117 -58 152 -65 198 -40 50 26 55 57 35
215 l-18 140 96 98 c102 105 113 125 104 176 -11 59 -40 74 -186 101 -74 13
-139 30 -146 37 -7 7 -38 60 -69 118 -69 127 -78 138 -122 146 -66 12 -92 -10
-166 -148 l-67 -125 -96 17 c-53 10 -101 24 -106 31 -5 8 -18 32 -29 54 -82
158 -126 228 -151 241 -41 21 -99 18 -130 -9z m106 -79 c8 -13 43 -77 79 -143
35 -66 75 -127 88 -137 14 -10 88 -29 183 -46 147 -27 175 -38 176 -65 0 -5
-52 -62 -115 -127 -66 -69 -117 -130 -121 -146 -4 -16 2 -98 13 -183 12 -85
19 -160 16 -167 -10 -28 -39 -20 -179 46 -81 39 -159 70 -174 70 -15 0 -94
-31 -174 -70 -140 -66 -169 -74 -179 -46 -3 7 4 82 16 167 11 88 17 167 13
184 -4 17 -52 74 -122 146 -63 64 -114 120 -114 125 1 28 29 39 176 66 95 17
169 36 183 46 13 10 53 71 88 137 84 157 90 165 113 165 11 0 26 -10 34 -22z
m-617 -158 c29 -52 53 -98 53 -102 0 -4 -15 -14 -34 -22 -52 -22 -72 -62 -68
-134 1 -14 46 -69 117 -144 86 -91 115 -127 115 -147 0 -23 -10 -96 -25 -188
l-6 -32 -94 46 c-54 26 -108 45 -127 45 -22 0 -76 -21 -146 -56 -116 -58 -139
-65 -148 -43 -2 7 2 62 11 122 25 183 29 169 -82 291 -54 58 -98 114 -98 122
0 13 25 21 125 39 180 32 176 30 256 178 47 88 72 125 83 123 9 -2 39 -46 68
-98z m1317 -26 c80 -147 76 -145 256 -177 100 -18 125 -26 125 -39 0 -8 -44
-64 -97 -122 -112 -122 -108 -108 -83 -291 9 -60 13 -115 11 -122 -9 -22 -32
-15 -148 43 -67 34 -125 56 -144 56 -18 0 -75 -20 -128 -45 l-95 -45 -6 31
c-15 92 -25 165 -25 188 0 20 27 55 111 142 117 123 134 154 118 211 -10 35
-50 76 -75 76 -28 0 -23 24 22 108 54 101 62 112 79 112 6 0 42 -57 79 -126z"/>
<path d="M1290 1600 c-9 -17 -3 -35 31 -101 26 -50 51 -85 68 -93 38 -20 244
-61 264 -53 27 10 32 37 11 56 -11 10 -58 26 -109 36 -129 26 -131 27 -166 97
-17 35 -37 66 -43 70 -20 14 -45 8 -56 -12z"/>
<path d="M672 517 c-72 -72 -82 -93 -60 -115 23 -23 44 -12 111 56 66 67 79
96 55 120 -20 20 -31 14 -106 -61z"/>
<path d="M1782 578 c-25 -25 -11 -54 56 -121 68 -67 88 -77 110 -55 23 23 12
44 -61 116 -75 75 -85 80 -105 60z"/>
<path d="M1252 358 c-8 -8 -12 -48 -12 -115 0 -92 2 -103 20 -113 14 -8 26 -8
40 0 18 10 20 21 20 113 0 105 -7 127 -40 127 -9 0 -21 -5 -28 -12z"/>
</g>
</svg>
