<?xml version="1.0" standalone="no"?>
<!DOCTYPE svg PUBLIC "-//W3C//DTD SVG 20010904//EN"
 "http://www.w3.org/TR/2001/REC-SVG-20010904/DTD/svg10.dtd">
<svg version="1.0" xmlns="http://www.w3.org/2000/svg"
 width="128.000000pt" height="128.000000pt" viewBox="0 0 128.000000 128.000000"
 preserveAspectRatio="xMidYMid meet">

<g transform="translate(0.000000,128.000000) scale(0.100000,-0.100000)"
fill="#000000" stroke="none">
<path d="M142 1085 c-84 -115 -142 -202 -140 -213 3 -14 16 -18 66 -20 l62 -3
0 -409 c0 -224 3 -415 6 -424 5 -14 28 -16 155 -16 136 0 149 2 159 19 6 13
10 165 10 425 l0 405 61 3 c103 5 102 8 -60 229 -79 107 -150 195 -159 197
-12 2 -62 -59 -160 -193z m267 -30 l101 -135 -36 0 c-19 0 -44 -5 -55 -10 -18
-10 -19 -26 -19 -430 l0 -420 -100 0 -100 0 -2 423 -3 422 -53 5 -53 5 102
138 c55 75 104 137 109 137 4 0 53 -61 109 -135z"/>
<path d="M830 1261 c-6 -13 -10 -165 -10 -425 l0 -406 -59 0 c-60 0 -89 -16
-78 -42 3 -7 66 -96 142 -198 92 -125 142 -185 155 -185 22 0 301 371 297 395
-2 11 -19 16 -65 18 l-62 3 0 417 c0 312 -3 421 -12 430 -8 8 -57 12 -155 12
-130 0 -143 -2 -153 -19z m252 -463 l3 -423 53 -5 53 -5 -105 -143 -105 -143
-106 141 -106 140 36 0 c20 0 45 5 56 10 18 10 19 26 19 430 l0 420 100 0 100
0 2 -422z"/>
</g>
</svg>
