<?xml version="1.0" standalone="no"?>
<!DOCTYPE svg PUBLIC "-//W3C//DTD SVG 20010904//EN"
 "http://www.w3.org/TR/2001/REC-SVG-20010904/DTD/svg10.dtd">
<svg version="1.0" xmlns="http://www.w3.org/2000/svg"
 width="128.000000pt" height="128.000000pt" viewBox="0 0 128.000000 128.000000"
 preserveAspectRatio="xMidYMid meet">

<g transform="translate(0.000000,128.000000) scale(0.100000,-0.100000)"
fill="#000000" stroke="none">
<path d="M867 1273 c-4 -3 -7 -33 -7 -65 l0 -58 -418 0 c-312 0 -421 -3 -430
-12 -8 -8 -12 -57 -12 -155 0 -130 2 -143 19 -153 13 -6 165 -10 425 -10 l406
0 0 -59 c0 -60 16 -89 42 -78 7 3 96 66 198 142 125 92 185 142 185 155 0 13
-62 64 -190 159 -104 77 -195 141 -201 141 -6 0 -14 -3 -17 -7z m201 -194
l133 -98 -141 -106 -140 -106 0 36 c0 20 -5 45 -10 56 -10 18 -26 19 -430 19
l-420 0 0 100 0 100 423 2 422 3 3 53 c2 38 6 50 15 45 7 -4 72 -51 145 -104z"/>
<path d="M195 459 c-123 -92 -190 -147 -190 -159 0 -23 378 -303 402 -298 15
3 19 15 21 66 l3 62 409 0 c224 0 415 3 424 6 14 5 16 28 16 155 0 136 -2 149
-19 159 -13 6 -165 10 -425 10 l-406 0 0 58 c0 55 -12 82 -34 82 -6 -1 -96
-64 -201 -141z m178 -46 c6 -10 103 -13 428 -13 l419 0 0 -100 0 -100 -422 -2
-423 -3 -5 -53 -5 -53 -138 102 c-76 56 -136 106 -135 111 2 5 62 53 133 107
l130 98 5 -41 c3 -23 9 -47 13 -53z"/>
</g>
</svg>
