<?xml version="1.0" standalone="no"?>
<!DOCTYPE svg PUBLIC "-//W3C//DTD SVG 20010904//EN"
 "http://www.w3.org/TR/2001/REC-SVG-20010904/DTD/svg10.dtd">
<svg version="1.0" xmlns="http://www.w3.org/2000/svg"
 width="256.000000pt" height="256.000000pt" viewBox="0 0 256.000000 256.000000"
 preserveAspectRatio="xMidYMid meet">

<g transform="translate(0.000000,256.000000) scale(0.100000,-0.100000)"
fill="#000000" stroke="none">
<path d="M205 2542 c-65 -22 -109 -55 -146 -105 -55 -76 -59 -109 -59 -468 0
-184 4 -339 10 -353 20 -54 47 -61 254 -64 221 -4 266 1 304 33 l27 23 3 176
3 176 190 0 189 0 0 -940 c0 -1022 -2 -982 55 -1008 18 -8 96 -12 245 -12 149
0 227 4 245 12 43 19 55 56 55 163 0 107 -12 144 -55 163 -75 34 -145 -15
-145 -103 l0 -35 -100 0 -100 0 0 940 c0 1022 2 982 -55 1008 -41 19 -637 17
-674 -2 -45 -24 -51 -52 -51 -231 l0 -165 -100 0 -100 0 0 265 c0 289 3 310
55 333 19 9 272 12 1026 12 1086 0 1041 2 1067 -55 8 -18 12 -107 12 -290 l0
-265 -100 0 -100 0 0 165 c0 179 -6 207 -51 231 -37 19 -633 21 -674 2 -52
-24 -55 -42 -55 -363 0 -321 3 -339 55 -363 34 -16 60 -15 94 2 47 25 51 48
51 301 l0 235 189 0 190 0 3 -176 3 -176 27 -23 c38 -32 83 -37 304 -33 208 3
234 10 255 65 6 17 9 158 7 372 -3 327 -4 348 -24 392 -31 66 -78 114 -142
146 l-57 28 -1040 2 c-967 2 -1044 1 -1090 -15z"/>
<path d="M1411 1196 c-27 -15 -50 -52 -51 -80 0 -20 103 -401 121 -447 6 -14
146 -161 312 -326 338 -336 341 -338 472 -338 168 0 289 123 290 295 0 127
-11 141 -352 482 l-298 297 -215 66 c-118 36 -224 65 -235 65 -11 -1 -31 -7
-44 -14z m309 -269 l85 -26 183 -183 182 -183 -73 -73 -72 -72 -182 183 -182
182 -25 95 c-30 109 -30 114 -13 107 6 -2 50 -16 97 -30z m620 -569 c24 -39
25 -69 6 -107 -27 -51 -89 -64 -145 -30 l-34 21 74 74 c40 41 75 74 76 74 2 0
12 -15 23 -32z"/>
</g>
</svg>
