<?xml version="1.0" standalone="no"?>
<!DOCTYPE svg PUBLIC "-//W3C//DTD SVG 20010904//EN"
 "http://www.w3.org/TR/2001/REC-SVG-20010904/DTD/svg10.dtd">
<svg version="1.0" xmlns="http://www.w3.org/2000/svg"
 width="256.000000pt" height="256.000000pt" viewBox="0 0 256.000000 256.000000"
 preserveAspectRatio="xMidYMid meet">

<g transform="translate(0.000000,256.000000) scale(0.100000,-0.100000)"
fill="#000000" stroke="none">
<path d="M363 2552 c-6 -4 -17 -20 -22 -35 -14 -36 -15 -885 -2 -920 11 -27
41 -42 69 -33 9 3 89 102 177 221 l160 214 128 1 127 0 0 -555 0 -555 -93 0
c-78 0 -97 -3 -110 -18 -22 -24 -21 -55 1 -75 17 -15 65 -17 484 -17 438 0
466 1 481 18 22 24 21 55 -1 75 -15 13 -39 17 -110 17 l-92 0 0 555 0 555 128
0 127 -1 160 -214 c88 -119 168 -218 177 -221 28 -9 58 6 69 33 13 35 12 884
-2 920 -5 15 -16 31 -22 35 -16 10 -1818 10 -1834 0z m1755 -434 c1 -181 -1
-328 -5 -328 -5 1 -53 62 -108 136 -152 207 -111 184 -338 184 -137 0 -196 -3
-205 -12 -9 -9 -12 -158 -12 -610 l0 -598 -170 0 -170 0 0 598 c0 452 -3 601
-12 610 -9 9 -69 12 -209 12 l-197 0 -118 -160 c-66 -87 -122 -159 -126 -160
-10 0 -11 644 -1 653 3 4 380 6 837 5 l831 -3 3 -327z"/>
<path d="M183 597 c-137 -137 -183 -189 -183 -207 0 -18 46 -70 183 -207 186
-187 207 -201 241 -167 36 35 21 62 -106 191 l-122 123 1084 0 1084 0 -122
-123 c-127 -129 -142 -156 -106 -191 34 -34 55 -20 241 167 136 136 183 189
183 207 0 17 -46 70 -177 202 -98 98 -188 181 -201 185 -30 7 -62 -22 -62 -56
0 -20 28 -54 120 -146 66 -66 120 -123 120 -127 0 -5 -486 -8 -1080 -8 -594 0
-1080 3 -1080 8 0 4 54 61 120 127 92 92 120 126 120 146 0 30 -28 59 -55 59
-12 0 -94 -75 -202 -183z"/>
</g>
</svg>
