<?xml version="1.0" standalone="no"?>
<!DOCTYPE svg PUBLIC "-//W3C//DTD SVG 20010904//EN"
 "http://www.w3.org/TR/2001/REC-SVG-20010904/DTD/svg10.dtd">
<svg version="1.0" xmlns="http://www.w3.org/2000/svg"
 width="64.000000pt" height="64.000000pt" viewBox="0 0 64.000000 64.000000"
 preserveAspectRatio="xMidYMid meet">

<g transform="translate(0.000000,64.000000) scale(0.100000,-0.100000)"
fill="#000000" stroke="none">
<path d="M224 589 c-59 -17 -128 -71 -151 -119 -12 -25 -25 -53 -28 -64 -4
-15 -8 -16 -20 -6 -9 7 -18 10 -21 7 -10 -9 14 -70 40 -102 20 -25 26 -27 39
-17 9 8 19 28 22 45 4 18 9 40 12 51 4 16 1 18 -21 12 -29 -7 -31 -1 -15 41
29 77 120 134 227 141 39 2 72 9 72 13 0 12 -116 10 -156 -2z m-134 -239 c0
-8 -5 -22 -10 -30 -9 -13 -13 -12 -30 9 -27 31 -25 36 10 36 20 0 30 -5 30
-15z"/>
<path d="M430 574 c0 -3 17 -33 37 -66 37 -59 37 -60 46 -34 9 27 10 27 29 9
30 -27 55 -82 72 -159 14 -67 14 -68 15 -23 1 66 -24 139 -63 186 -35 40 -35
41 -16 58 11 10 17 22 14 26 -6 10 -134 13 -134 3z m83 -45 l-17 -28 -18 27
c-24 37 -23 39 17 34 l35 -4 -17 -29z"/>
<path d="M95 188 c32 -106 121 -154 268 -146 61 4 90 11 136 35 l59 31 6 -24
c8 -32 22 -30 40 3 17 34 39 113 33 120 -7 6 -157 -39 -157 -48 0 -4 14 -10
30 -14 38 -8 31 -19 -33 -52 -131 -66 -303 -30 -352 74 -21 45 -41 58 -30 21z
m515 -25 c-1 -10 -7 -31 -14 -48 l-12 -30 -7 32 c-4 22 -13 33 -29 36 l-23 4
25 11 c38 16 60 14 60 -5z"/>
</g>
</svg>
